<svg width="86" height="86" viewBox="0 0 86 86" fill="none" xmlns="http://www.w3.org/2000/svg">
<path d="M50.1666 9.85416C56.9994 9.85416 61.8536 9.85987 65.5361 10.355C69.1413 10.8397 71.2183 11.7486 72.7348 13.2651C74.4804 15.0107 75.2401 16.3639 75.6611 18.7761C76.1355 21.495 76.1458 25.3733 76.1458 32.25C76.1458 33.7343 77.3491 34.9375 78.8333 34.9375C80.3176 34.9375 81.5208 33.7343 81.5208 32.25L81.5208 31.9049C81.521 25.4578 81.5211 21.0904 80.956 17.8521C80.3274 14.2497 78.9881 11.917 76.5355 9.46445C73.8539 6.78281 70.4535 5.59273 66.2523 5.02789C62.1701 4.47906 56.9541 4.4791 50.3689 4.47916H50.1666C48.6824 4.47916 47.4791 5.68239 47.4791 7.16666C47.4791 8.65093 48.6824 9.85416 50.1666 9.85416Z" fill="#3FD246"/>
<path d="M7.16664 51.0625C8.65091 51.0625 9.85415 52.2657 9.85415 53.75C9.85415 60.6267 9.86447 64.505 10.3389 67.2239C10.7598 69.6361 11.5196 70.9893 13.2651 72.7348C14.7816 74.2513 16.8587 75.1603 20.4639 75.645C24.1463 76.1401 29.0005 76.1458 35.8333 76.1458C37.3176 76.1458 38.5208 77.3491 38.5208 78.8333C38.5208 80.3176 37.3176 81.5208 35.8333 81.5208H35.6312C29.0459 81.5209 23.8298 81.5209 19.7476 80.9721C15.5465 80.4073 12.1461 79.2172 9.46443 76.5355C7.01187 74.083 5.67253 71.7503 5.04392 68.1479C4.47885 64.9096 4.47896 60.5423 4.47913 54.0953L4.47914 53.75C4.47914 52.2657 5.68238 51.0625 7.16664 51.0625Z" fill="#3FD246"/>
<path d="M78.8333 51.0625C80.3176 51.0625 81.5208 52.2657 81.5208 53.75L81.5208 54.0951C81.521 60.5422 81.5211 64.9095 80.956 68.1479C80.3274 71.7503 78.9881 74.083 76.5355 76.5355C73.8539 79.2172 70.4535 80.4073 66.2523 80.9721C62.1701 81.5209 56.9541 81.5209 50.3688 81.5208H50.1666C48.6824 81.5208 47.4791 80.3176 47.4791 78.8333C47.4791 77.3491 48.6824 76.1458 50.1666 76.1458C56.9994 76.1458 61.8536 76.1401 65.5361 75.645C69.1413 75.1603 71.2183 74.2513 72.7348 72.7348C74.4804 70.9893 75.2401 69.6361 75.6611 67.2239C76.1355 64.505 76.1458 60.6267 76.1458 53.75C76.1458 52.2657 77.3491 51.0625 78.8333 51.0625Z" fill="#3FD246"/>
<path d="M35.6312 4.47916H35.8333C37.3176 4.47916 38.5208 5.68239 38.5208 7.16666C38.5208 8.65093 37.3176 9.85416 35.8333 9.85416C29.0005 9.85416 24.1463 9.85987 20.4639 10.355C16.8587 10.8397 14.7816 11.7486 13.2651 13.2651C11.5196 15.0107 10.7598 16.3639 10.3389 18.7761C9.86447 21.495 9.85415 25.3733 9.85415 32.25C9.85415 33.7343 8.65091 34.9375 7.16664 34.9375C5.68238 34.9375 4.47914 33.7343 4.47914 32.25L4.47913 31.9049C4.47896 25.4579 4.47885 21.0904 5.04392 17.8521C5.67253 14.2497 7.01187 11.917 9.46443 9.46445C12.1461 6.78281 15.5465 5.59273 19.7476 5.02789C23.8298 4.47906 29.0459 4.4791 35.6312 4.47916Z" fill="#3FD246"/>
<path d="M7.16664 40.3125C5.68238 40.3125 4.47914 41.5157 4.47914 43C4.47914 44.4843 5.68238 45.6875 7.16664 45.6875H78.8333C80.3176 45.6875 81.5208 44.4843 81.5208 43C81.5208 41.5157 80.3176 40.3125 78.8333 40.3125H7.16664Z" fill="#3FD246"/>
</svg>
