<svg width="14" height="14" viewBox="0 0 14 14" fill="none" xmlns="http://www.w3.org/2000/svg">
<path d="M2.75763 0.473135C2.12679 -0.157712 1.10398 -0.157712 0.473135 0.473135C-0.157712 1.10398 -0.157712 2.12679 0.473135 2.75763L4.71552 7.00002L0.473181 11.2424C-0.157666 11.8732 -0.157666 12.896 0.473181 13.5269C1.10403 14.1577 2.12683 14.1577 2.75768 13.5269L7.00002 9.28452L11.2423 13.5268C11.8732 14.1577 12.896 14.1577 13.5268 13.5268C14.1577 12.896 14.1577 11.8732 13.5268 11.2423L9.28452 7.00002L13.5269 2.75768C14.1577 2.12683 14.1577 1.10403 13.5269 0.473178C12.896 -0.157669 11.8732 -0.157669 11.2424 0.473178L7.00002 4.71552L2.75763 0.473135Z" fill="#808080"/>
</svg>
